<svg width="1440" height="143" viewBox="0 0 1440 143" fill="none" xmlns="http://www.w3.org/2000/svg">
<mask id="mask0" mask-type="alpha" maskUnits="userSpaceOnUse" x="0" y="0" width="1440" height="143">
<path d="M6.10352e-05 0H1440V143C1440 143 1188 143 720.5 143C253 143 6.10352e-05 143 6.10352e-05 143V0Z" fill="#212121"/>
</mask>
<g mask="url(#mask0)">
<path d="M125.59 -3.2657C129.308 -2.26951 130.553 2.3778 127.832 5.09946L-1.90053 134.832C-4.62219 137.553 -9.26949 136.308 -10.2657 132.59L-57.7509 -44.6272C-58.7471 -48.3451 -55.3451 -51.7471 -51.6272 -50.7509L125.59 -3.2657Z" fill="#FDAD00"/>
<path d="M1351.48 142.087C1347.63 142.087 1345.23 137.921 1347.15 134.587L1431.01 -10.6558C1432.93 -13.9892 1437.75 -13.9892 1439.67 -10.6558L1523.53 134.587C1525.45 137.921 1523.04 142.087 1519.2 142.087L1351.48 142.087Z" fill="#FDAD00"/>
<path d="M1426.92 69.1279C1428.74 72.4227 1426.4 76.4688 1422.64 76.5421L1373.24 77.5053C1369.34 77.5811 1366.86 73.3772 1368.81 70.0062L1394.34 25.7761C1396.29 22.4051 1401.17 22.4527 1403.05 25.861L1426.92 69.1279Z" fill="#EAD103"/>
</g>
</svg>
