<svg width="95" height="142" viewBox="0 0 95 142" fill="none" xmlns="http://www.w3.org/2000/svg">
<mask id="mask0" mask-type="alpha" maskUnits="userSpaceOnUse" x="0" y="0" width="95" height="142">
<path d="M0 0H95V142C95 142 78.375 142 47.533 142C16.691 142 0 142 0 142V0Z" fill="#212121"/>
</mask>
<g mask="url(#mask0)">
<path d="M6.48333 142.087C2.63433 142.087 0.228712 137.921 2.15321 134.587L86.0095 -10.6558C87.934 -13.9892 92.7452 -13.9892 94.6697 -10.6558L178.526 134.587C180.451 137.921 178.045 142.087 174.196 142.087L6.48333 142.087Z" fill="#FDAD00"/>
<path d="M81.921 69.1279C83.7385 72.4227 81.4026 76.4688 77.6404 76.5421L28.2361 77.5053C24.3444 77.5811 21.8623 73.3772 23.8085 70.0062L49.3448 25.7761C51.291 22.4051 56.1728 22.4527 58.053 25.861L81.921 69.1279Z" fill="#EAD103"/>
</g>
</svg>
