<svg width="353" height="899" viewBox="0 0 353 899" fill="none" xmlns="http://www.w3.org/2000/svg">
<mask id="mask0" mask-type="alpha" maskUnits="userSpaceOnUse" x="0" y="0" width="353" height="899">
<path d="M0 0H353V899C353 899 291.837 899 177.235 899C62.6325 899 0 899 0 899V0Z" fill="#212121"/>
</mask>
<g mask="url(#mask0)">
<path d="M222.223 199.33C198.13 179.336 198.13 142.37 222.223 122.376L399.177 -24.4694C431.762 -51.5102 481.107 -28.3363 481.107 14.0074L481.107 307.699C481.107 350.043 431.762 373.216 399.177 346.176L222.223 199.33Z" fill="#EAD103"/>
<path d="M20.3305 623.258C-3.80413 603.263 -3.80415 566.248 20.3305 546.253L376.458 251.205C409.051 224.203 458.357 247.383 458.357 289.708L458.357 879.803C458.357 922.128 409.051 945.308 376.458 918.306L20.3305 623.258Z" fill="#FDAD00"/>
</g>
</svg>
