<svg width="240" height="820" viewBox="0 0 240 820" fill="none" xmlns="http://www.w3.org/2000/svg">
<mask id="mask0" mask-type="alpha" maskUnits="userSpaceOnUse" x="0" y="0" width="240" height="820">
<path d="M0 0H240V820C240 820 197.419 820 119.502 820C41.5854 820 0 820 0 820V0Z" fill="#212121"/>
</mask>
<g mask="url(#mask0)">
<path d="M212.861 632.276C220.532 638.766 219.777 650.816 211.357 656.298L-106.813 863.447C-117.15 870.176 -130.739 862.249 -129.968 849.939L-101.648 397.578C-100.878 385.268 -86.406 379.097 -76.9897 387.063L212.861 632.276Z" fill="#FDAD00"/>
<path d="M72.8232 418.081C79.6138 421.905 79.6138 431.683 72.8232 435.507L-24.1169 490.101C-30.783 493.855 -39.0239 489.038 -39.0239 481.387L-39.0239 372.201C-39.0239 364.55 -30.783 359.733 -24.1169 363.487L72.8232 418.081Z" fill="#EAD103"/>
<path d="M-402.774 -173.583L130.478 -10.9474L-290.802 372.558L-402.774 -173.583Z" fill="#EAD103"/>
<path d="M5.29665 58.9406C4.37168 52.2977 10.1195 46.6454 16.746 47.6816L85.3346 58.4067C93.4541 59.6763 96.6608 69.6545 90.8012 75.4167L31.7867 133.45C25.9271 139.213 16.0041 135.839 14.8707 127.699L5.29665 58.9406Z" fill="#FDAD00"/>
</g>
</svg>
