<svg width="354" height="900" viewBox="0 0 354 900" fill="none" xmlns="http://www.w3.org/2000/svg">
<mask id="mask0" mask-type="alpha" maskUnits="userSpaceOnUse" x="0" y="0" width="354" height="900">
<path d="M0 0H354V900C354 900 295.427 900 180.5 900C65.5729 900 0 900 0 900V0Z" fill="#212121"/>
</mask>
<g mask="url(#mask0)">
<path d="M285.511 266.492C267.735 247.317 267.735 217.683 285.511 198.508L402.332 72.4908C433.24 39.1496 489 61.0192 489 106.483L489 358.517C489 403.981 433.24 425.85 402.332 392.509L285.511 266.492Z" fill="#EAD103"/>
<path d="M21.4734 622.906C-2.66131 602.91 -2.66133 565.896 21.4733 545.9L377.601 250.852C410.193 223.85 459.5 247.03 459.5 289.355L459.5 879.45C459.5 921.775 410.193 944.956 377.601 917.953L21.4734 622.906Z" fill="#FDAD00"/>
</g>
</svg>
