<svg width="15" height="11" viewBox="0 0 15 11" fill="none" xmlns="http://www.w3.org/2000/svg">
<path d="M13.6816 0H1.31836C0.589951 0 0 0.593613 0 1.31836V9.22852C0 9.95757 0.594287 10.5469 1.31836 10.5469H13.6816C14.404 10.5469 15 9.96006 15 9.22852V1.31836C15 0.594902 14.4124 0 13.6816 0ZM13.497 0.878906C13.2277 1.14683 8.59228 5.7578 8.43223 5.917C8.1832 6.16603 7.85215 6.30313 7.5 6.30313C7.14785 6.30313 6.8168 6.166 6.56695 5.91618C6.45932 5.8091 1.87509 1.24904 1.50299 0.878906H13.497ZM0.878906 9.04963V1.4978L4.67689 5.27578L0.878906 9.04963ZM1.50354 9.66797L5.30004 5.89562L5.9463 6.53848C6.36132 6.9535 6.9131 7.18204 7.5 7.18204C8.0869 7.18204 8.63868 6.9535 9.05288 6.5393L9.69996 5.89562L13.4965 9.66797H1.50354ZM14.1211 9.04963L10.3231 5.27578L14.1211 1.4978V9.04963Z" fill="black"/>
</svg>
