<svg width="100" height="100" viewBox="0 0 100 100" fill="none" xmlns="http://www.w3.org/2000/svg">
<g clip-path="url(#clip0)">
<path d="M61.5234 17.7733H38.0859C36.468 17.7733 35.1562 19.085 35.1562 20.703C35.1562 22.321 36.468 23.6327 38.0859 23.6327H61.5234C63.1414 23.6327 64.4531 22.321 64.4531 20.703C64.4531 19.085 63.1414 17.7733 61.5234 17.7733Z" fill="#212121"/>
<path d="M61.5234 29.4921H38.0859C36.468 29.4921 35.1562 30.8038 35.1562 32.4218C35.1562 34.0397 36.468 35.3514 38.0859 35.3514H61.5234C63.1414 35.3514 64.4531 34.0397 64.4531 32.4218C64.4531 30.8038 63.1414 29.4921 61.5234 29.4921Z" fill="#212121"/>
<path d="M61.5234 41.2108H14.6484C13.0305 41.2108 11.7188 42.5225 11.7188 44.1405C11.7188 45.7585 13.0305 47.0702 14.6484 47.0702H61.5234C63.1414 47.0702 64.4531 45.7585 64.4531 44.1405C64.4531 42.5225 63.1414 41.2108 61.5234 41.2108Z" fill="#212121"/>
<path d="M50.9027 52.9296H14.6484C13.0305 52.9296 11.7188 54.2413 11.7188 55.8593C11.7188 57.4772 13.0305 58.7889 14.6484 58.7889H50.9027C52.5207 58.7889 53.8324 57.4772 53.8324 55.8593C53.8324 54.2413 52.5207 52.9296 50.9027 52.9296Z" fill="#212121"/>
<path d="M76.3672 52.9296V8.78894C76.3672 3.93113 72.2469 -0.00012207 67.3828 -0.00012207H26.3668C25.624 -0.00012207 24.86 0.293628 24.2871 0.866675L0.849609 24.4995C0.311133 25.0423 0 25.7971 0 26.5624V91.2108C0 96.0571 3.94277 99.9999 8.78906 99.9999C14.9699 99.9999 17.0223 99.9999 17.0135 99.9999C25.9984 99.9999 43.6785 99.9999 76.3672 99.9999C89.3033 99.9999 100 89.3487 100 76.3671C100 63.4436 89.3984 52.9296 76.3672 52.9296ZM23.4375 10.0442V23.6327H9.96133L23.4375 10.0442ZM8.78906 94.1405C7.17363 94.1405 5.85938 92.8262 5.85938 91.2108V29.4921H26.3672C27.9852 29.4921 29.2969 28.1803 29.2969 26.5624V5.85925H67.3828C69.0475 5.85925 70.5078 7.2282 70.5078 8.78894V53.6591C64.2895 55.238 59.0514 59.2694 55.9068 64.6483H14.6484C13.0305 64.6483 11.7188 65.96 11.7188 67.578C11.7188 69.196 13.0305 70.5077 14.6484 70.5077H53.482C52.9941 72.3811 52.7344 74.3446 52.7344 76.3671H14.6484C13.0305 76.3671 11.7188 77.6788 11.7188 79.2968C11.7188 80.9147 13.0305 82.2264 14.6484 82.2264H53.4775C54.6617 86.8079 57.2221 90.9372 60.8764 94.1405H8.78906ZM76.3672 94.1405C66.733 94.1405 58.5938 86.0012 58.5938 76.3671C58.5938 66.6745 66.5668 58.7889 76.3672 58.7889C86.1676 58.7889 94.1406 66.6745 94.1406 76.3671C94.1406 86.0012 86.0014 94.1405 76.3672 94.1405Z" fill="#212121"/>
<path d="M87.4402 71.3831C86.3058 70.2296 84.4507 70.2141 83.297 71.3487L73.4209 81.0632L69.4201 77.1915C68.2574 76.0663 66.4027 76.0967 65.2775 77.2594C64.1523 78.4221 64.1828 80.2768 65.3455 81.402L71.4002 87.2614C72.5421 88.3667 74.358 88.36 75.492 87.2448L87.406 75.526C88.5595 74.3915 88.5748 72.5366 87.4402 71.3831Z" fill="#212121"/>
</g>
<defs>
<clipPath id="clip0">
<rect width="100" height="100" fill="white" transform="translate(0 -0.00012207)"/>
</clipPath>
</defs>
</svg>
