<svg width="20" height="21" viewBox="0 0 20 21" fill="none" xmlns="http://www.w3.org/2000/svg">
<path d="M17.07 3.01305C13.1642 -1.0052 6.83251 -1.00424 2.92786 3.01526C-0.976781 7.03476 -0.975844 13.5506 2.93001 17.5689C6.83587 21.5871 13.1675 21.5861 17.0722 17.5667C18.9474 15.6363 20.0006 13.0183 20 10.2887C19.9995 7.55964 18.9455 4.94252 17.07 3.01305ZM15.1447 14.3352C15.1442 14.3356 15.1438 14.3361 15.1433 14.3365V14.3331L14.6366 14.8511C13.9814 15.5339 13.027 15.8149 12.12 15.592C11.2061 15.3403 10.3374 14.9396 9.54665 14.4052C8.81204 13.922 8.13126 13.3572 7.51665 12.7209C6.95114 12.1432 6.4431 11.5088 5.99997 10.8273C5.51528 10.094 5.13165 9.29519 4.85997 8.45354C4.54853 7.46481 4.80661 6.37988 5.52665 5.65099L6.11997 5.04041C6.28493 4.86988 6.55298 4.86928 6.71864 5.03904C6.71907 5.03948 6.71954 5.03992 6.71997 5.04041L8.59329 6.96823C8.75899 7.13799 8.75958 7.41383 8.59462 7.58432C8.59419 7.58476 8.59376 7.5852 8.59329 7.58568L7.49329 8.71769C7.17767 9.03896 7.13798 9.54949 7.39997 9.91831C7.79782 10.4802 8.2381 11.0089 8.71665 11.4997C9.2502 12.0511 9.83024 12.5528 10.45 12.9988C10.8081 13.2558 11.2935 13.2125 11.6033 12.8958L12.6666 11.7844C12.8316 11.6139 13.0996 11.6133 13.2653 11.7831C13.2657 11.7835 13.2661 11.7839 13.2666 11.7844L15.1433 13.7191C15.309 13.8888 15.3096 14.1646 15.1447 14.3352Z" fill="white"/>
</svg>
