<svg width="100" height="100" viewBox="0 0 100 100" fill="none" xmlns="http://www.w3.org/2000/svg">
<g clip-path="url(#clip0)">
<path d="M88.2812 7.81238H83.5938V-0.00012207H75.7812V7.81238H24.2188V-0.00012207H16.4062V7.81238H11.7188C5.25703 7.81238 0 13.0694 0 19.5311V88.2811C0 94.7428 5.25703 99.9999 11.7188 99.9999H88.2812C94.743 99.9999 100 94.7428 100 88.2811V19.5311C100 13.0694 94.743 7.81238 88.2812 7.81238ZM92.1875 88.2811C92.1875 90.435 90.4352 92.1874 88.2812 92.1874H11.7188C9.56484 92.1874 7.8125 90.435 7.8125 88.2811V36.7186H92.1875V88.2811ZM92.1875 28.9061H7.8125V19.5311C7.8125 17.3772 9.56484 15.6249 11.7188 15.6249H16.4062V23.4374H24.2188V15.6249H75.7812V23.4374H83.5938V15.6249H88.2812C90.4352 15.6249 92.1875 17.3772 92.1875 19.5311V28.9061Z" fill="#212121"/>
<path d="M22.6562 44.9218H14.8438V52.7343H22.6562V44.9218Z" fill="#212121"/>
<path d="M38.2812 44.9218H30.4688V52.7343H38.2812V44.9218Z" fill="#212121"/>
<path d="M53.9062 44.9218H46.0938V52.7343H53.9062V44.9218Z" fill="#212121"/>
<path d="M69.5312 44.9218H61.7188V52.7343H69.5312V44.9218Z" fill="#212121"/>
<path d="M85.1562 44.9218H77.3438V52.7343H85.1562V44.9218Z" fill="#212121"/>
<path d="M22.6562 60.5468H14.8438V68.3593H22.6562V60.5468Z" fill="#212121"/>
<path d="M38.2812 60.5468H30.4688V68.3593H38.2812V60.5468Z" fill="#212121"/>
<path d="M53.9062 60.5468H46.0938V68.3593H53.9062V60.5468Z" fill="#212121"/>
<path d="M69.5312 60.5468H61.7188V68.3593H69.5312V60.5468Z" fill="#212121"/>
<path d="M22.6562 76.1718H14.8438V83.9843H22.6562V76.1718Z" fill="#212121"/>
<path d="M38.2812 76.1718H30.4688V83.9843H38.2812V76.1718Z" fill="#212121"/>
<path d="M53.9062 76.1718H46.0938V83.9843H53.9062V76.1718Z" fill="#212121"/>
<path d="M69.5312 76.1718H61.7188V83.9843H69.5312V76.1718Z" fill="#212121"/>
<path d="M85.1562 60.5468H77.3438V68.3593H85.1562V60.5468Z" fill="#212121"/>
</g>
<defs>
<clipPath id="clip0">
<rect width="100" height="100" fill="white" transform="translate(0 -0.00012207)"/>
</clipPath>
</defs>
</svg>
