<svg width="100" height="100" viewBox="0 0 100 100" fill="none" xmlns="http://www.w3.org/2000/svg">
<g clip-path="url(#clip0)">
<path d="M50 -0.00012207C22.4294 -0.00012207 0 22.4293 0 49.9999C0 77.5684 22.4294 99.9999 50 99.9999C77.5706 99.9999 100 77.5684 100 49.9999C100 22.4293 77.5706 -0.00012207 50 -0.00012207ZM50 91.6665C27.0253 91.6665 8.33333 72.9745 8.33333 49.9999C8.33333 27.0252 27.0253 8.33321 50 8.33321C72.9746 8.33321 91.6667 27.0252 91.6667 49.9999C91.6667 72.9745 72.9746 91.6665 50 91.6665Z" fill="#212121"/>
<path d="M55.831 24.592C55.2837 24.3539 54.7272 24.1647 54.1667 23.9999V16.6666H45.8334V24.0274C41.8651 25.2267 38.4268 28.0913 36.6568 32.1858C35.1085 35.7604 35.0485 39.7246 36.4818 43.3461C37.9151 46.9685 40.6729 49.8148 44.3401 51.3996L52.4435 54.6813C53.9755 55.3415 55.1586 56.5622 55.773 58.1145C56.3874 59.6669 56.361 61.3667 55.6977 62.8976C55.0355 64.4286 53.8148 65.6127 52.2624 66.2271C50.7081 66.8415 49.0123 66.8161 47.4814 66.1518C45.219 65.1732 43.7541 62.921 43.7521 60.4145L43.7501 56.2479L35.4167 56.256L35.4188 60.4227C35.4229 66.2495 38.8581 71.4995 44.1712 73.8016C44.7165 74.0376 45.2729 74.2288 45.8354 74.3957V83.3332H54.1688V74.3712C54.5584 74.2522 54.948 74.123 55.3315 73.9704C58.9519 72.5371 61.7982 69.7773 63.3454 66.2017C64.8937 62.6271 64.9547 58.6649 63.5214 55.0434C62.0871 51.423 59.3293 48.5768 55.6621 46.9899L47.5587 43.7102C46.0267 43.048 44.8436 41.8273 44.2292 40.275C43.6148 38.7226 43.6423 37.0228 44.3045 35.4918C44.9667 33.9599 46.1874 32.7768 47.7397 32.1624C49.29 31.55 50.9899 31.5744 52.5229 32.2377C54.7517 33.204 56.2501 35.3189 56.2501 37.4999V41.6666H64.5834V37.4999C64.5834 31.9579 61.1481 26.892 55.831 24.592Z" fill="#212121"/>
</g>
<defs>
<clipPath id="clip0">
<rect width="100" height="100" fill="white" transform="translate(0 -0.00012207)"/>
</clipPath>
</defs>
</svg>
