<svg width="100" height="100" viewBox="0 0 100 100" fill="none" xmlns="http://www.w3.org/2000/svg">
<g clip-path="url(#clip0)">
<path d="M65.2323 64.3545L51.2896 53.8975V32.5963C51.2896 30.4545 49.5583 28.7233 47.4165 28.7233C45.2747 28.7233 43.5435 30.4545 43.5435 32.5963V55.8342C43.5435 57.0542 44.1167 58.2045 45.0927 58.9327L60.5845 70.5516C61.2816 71.0745 62.095 71.3262 62.9044 71.3262C64.0857 71.3262 65.2476 70.7956 66.0067 69.7731C67.2929 68.0649 66.9442 65.6366 65.2323 64.3545Z" fill="#212121"/>
<path d="M50 -0.00012207C22.4283 -0.00012207 0 22.4282 0 49.9999C0 77.5716 22.4283 99.9999 50 99.9999C77.5717 99.9999 100 77.5716 100 49.9999C100 22.4282 77.5717 -0.00012207 50 -0.00012207ZM50 92.254C26.7041 92.254 7.7459 73.2958 7.7459 49.9999C7.7459 26.704 26.7041 7.74578 50 7.74578C73.2998 7.74578 92.2541 26.704 92.2541 49.9999C92.2541 73.2958 73.2959 92.254 50 92.254Z" fill="#212121"/>
</g>
<defs>
<clipPath id="clip0">
<rect width="100" height="100" fill="white" transform="translate(0 -0.00012207)"/>
</clipPath>
</defs>
</svg>
