<svg width="24" height="22" viewBox="0 0 24 22" fill="none" xmlns="http://www.w3.org/2000/svg">
<path d="M11.5933 19.7939C11.5933 20.8947 10.7009 21.787 9.60014 21.787C8.49935 21.787 7.607 20.8947 7.607 19.7939C7.607 18.6931 8.49936 17.8007 9.60015 17.8007C10.7009 17.8007 11.5933 18.6931 11.5933 19.7939ZM17.6705 17.8008C16.5697 17.8008 15.6774 18.6931 15.6774 19.7939C15.6774 20.8947 16.5697 21.787 17.6705 21.787C18.7713 21.787 19.6637 20.8947 19.6637 19.7939C19.6636 18.6931 18.7713 17.8008 17.6705 17.8008ZM23.8574 8.44411L21.4049 15.7335C21.4049 15.7335 21.2019 16.8153 20.1675 16.8153C19.1331 16.8153 9.01775 16.8153 7.78334 16.8153C6.54893 16.8153 6.49705 15.4594 6.49705 15.4594C6.49705 15.4594 5.18115 5.6967 5.11594 5.1069C5.05073 4.5171 4.29646 4.07995 4.29646 4.07995L1.05112 2.56398C-0.725667 1.63484 0.0819593 -0.133054 1.05112 0.272987C5.16632 2.21425 7.07796 3.17008 7.20096 3.93473C7.32544 4.70086 7.54179 6.54582 7.54179 6.54582V6.55767C7.56699 6.55026 7.58477 6.54582 7.58477 6.54582C7.58477 6.54582 20.2045 6.54582 22.7534 6.54582C24.585 6.54582 23.8574 8.44708 23.8574 8.44411ZM20.3097 12.503L20.2846 12.5045H8.2783L8.52577 14.4665H19.7259L20.3097 12.503ZM21.479 8.54637H7.78186L8.04564 10.6432C10.673 10.6432 18.367 10.6432 20.8595 10.6432L21.479 8.54637Z" fill="#464646"/>
</svg>
