<svg width="25" height="26" viewBox="0 0 25 26" fill="none" xmlns="http://www.w3.org/2000/svg">
<path d="M24.2013 23.2473L18.2513 17.059C19.7811 15.2403 20.6194 12.9521 20.6194 10.57C20.6194 5.0044 16.0912 0.476257 10.5256 0.476257C4.96002 0.476257 0.431885 5.0044 0.431885 10.57C0.431885 16.1356 4.96002 20.6637 10.5256 20.6637C12.615 20.6637 14.6061 20.0335 16.3085 18.8372L22.3037 25.0725C22.5543 25.3328 22.8913 25.4763 23.2525 25.4763C23.5944 25.4763 23.9187 25.3459 24.1649 25.1089C24.688 24.6056 24.7047 23.7709 24.2013 23.2473ZM10.5256 3.10941C14.6395 3.10941 17.9862 6.45614 17.9862 10.57C17.9862 14.6839 14.6395 18.0306 10.5256 18.0306C6.41177 18.0306 3.06503 14.6839 3.06503 10.57C3.06503 6.45614 6.41177 3.10941 10.5256 3.10941Z" fill="#464646"/>
</svg>
