<svg width="248" height="899" viewBox="0 0 248 899" fill="none" xmlns="http://www.w3.org/2000/svg">
<mask id="mask0" mask-type="alpha" maskUnits="userSpaceOnUse" x="0" y="0" width="248" height="899">
<path d="M0 0H248V899C248 899 205.03 899 124.516 899C44.0024 899 0 899 0 899V0Z" fill="#212121"/>
</mask>
<g mask="url(#mask0)">
<path d="M213.718 632.629C221.389 639.119 220.634 651.169 212.214 656.651L-105.957 863.8C-116.293 870.529 -129.882 862.602 -129.111 850.292L-100.792 397.931C-100.021 385.621 -85.5491 379.45 -76.1327 387.416L213.718 632.629Z" fill="#FDAD00"/>
<path d="M73.6804 418.434C80.471 422.258 80.471 432.036 73.6804 435.86L-23.2597 490.454C-29.9258 494.208 -38.1667 489.391 -38.1667 481.74L-38.1667 372.554C-38.1667 364.903 -29.9258 360.086 -23.2597 363.84L73.6804 418.434Z" fill="#EAD103"/>
<path d="M-234.774 -209.583L298.478 -46.9475L-122.802 336.558L-234.774 -209.583Z" fill="#EAD103"/>
<path d="M40.7477 138.744C39.8227 132.101 45.5705 126.449 52.197 127.485L138.085 140.915C146.204 142.185 149.411 152.163 143.551 157.925L69.6525 230.596C63.7929 236.358 53.8698 232.985 52.7365 224.845L40.7477 138.744Z" fill="#FDAD00"/>
</g>
</svg>
