 <svg version="1.1" xmlns="http://www.w3.org/2000/svg" xmlns:xlink="http://www.w3.org/1999/xlink">
    <symbol id="cart" viewBox="0 0 24 22">
        <path d="M11.5933 19.7939C11.5933 20.8947 10.7009 21.787 9.60014 21.787C8.49935 21.787 7.607 20.8947 7.607 19.7939C7.607 18.6931 8.49936 17.8007 9.60015 17.8007C10.7009 17.8007 11.5933 18.6931 11.5933 19.7939ZM17.6705 17.8008C16.5697 17.8008 15.6774 18.6931 15.6774 19.7939C15.6774 20.8947 16.5697 21.787 17.6705 21.787C18.7713 21.787 19.6637 20.8947 19.6637 19.7939C19.6636 18.6931 18.7713 17.8008 17.6705 17.8008ZM23.8574 8.44411L21.4049 15.7335C21.4049 15.7335 21.2019 16.8153 20.1675 16.8153C19.1331 16.8153 9.01775 16.8153 7.78334 16.8153C6.54893 16.8153 6.49705 15.4594 6.49705 15.4594C6.49705 15.4594 5.18115 5.6967 5.11594 5.1069C5.05073 4.5171 4.29646 4.07995 4.29646 4.07995L1.05112 2.56398C-0.725667 1.63484 0.0819593 -0.133054 1.05112 0.272987C5.16632 2.21425 7.07796 3.17008 7.20096 3.93473C7.32544 4.70086 7.54179 6.54582 7.54179 6.54582V6.55767C7.56699 6.55026 7.58477 6.54582 7.58477 6.54582C7.58477 6.54582 20.2045 6.54582 22.7534 6.54582C24.585 6.54582 23.8574 8.44708 23.8574 8.44411ZM20.3097 12.503L20.2846 12.5045H8.2783L8.52577 14.4665H19.7259L20.3097 12.503ZM21.479 8.54637H7.78186L8.04564 10.6432C10.673 10.6432 18.367 10.6432 20.8595 10.6432L21.479 8.54637Z"/>
    </symbol>
    <symbol id="phone"  viewBox="0 0 20 21"> 
        <path d="M17.07 3.01305C13.1642 -1.0052 6.83251 -1.00424 2.92786 3.01526C-0.976781 7.03476 -0.975844 13.5506 2.93001 17.5689C6.83587 21.5871 13.1675 21.5861 17.0722 17.5667C18.9474 15.6363 20.0006 13.0183 20 10.2887C19.9995 7.55964 18.9455 4.94252 17.07 3.01305ZM15.1447 14.3352C15.1442 14.3356 15.1438 14.3361 15.1433 14.3365V14.3331L14.6366 14.8511C13.9814 15.5339 13.027 15.8149 12.12 15.592C11.2061 15.3403 10.3374 14.9396 9.54665 14.4052C8.81204 13.922 8.13126 13.3572 7.51665 12.7209C6.95114 12.1432 6.4431 11.5088 5.99997 10.8273C5.51528 10.094 5.13165 9.29519 4.85997 8.45354C4.54853 7.46481 4.80661 6.37988 5.52665 5.65099L6.11997 5.04041C6.28493 4.86988 6.55298 4.86928 6.71864 5.03904C6.71907 5.03948 6.71954 5.03992 6.71997 5.04041L8.59329 6.96823C8.75899 7.13799 8.75958 7.41383 8.59462 7.58432C8.59419 7.58476 8.59376 7.5852 8.59329 7.58568L7.49329 8.71769C7.17767 9.03896 7.13798 9.54949 7.39997 9.91831C7.79782 10.4802 8.2381 11.0089 8.71665 11.4997C9.2502 12.0511 9.83024 12.5528 10.45 12.9988C10.8081 13.2558 11.2935 13.2125 11.6033 12.8958L12.6666 11.7844C12.8316 11.6139 13.0996 11.6133 13.2653 11.7831C13.2657 11.7835 13.2661 11.7839 13.2666 11.7844L15.1433 13.7191C15.309 13.8888 15.3096 14.1646 15.1447 14.3352Z" />
    </symbol>
    <symbol id="triangle-square" viewBox="0 0 179 155"> 
        <path d="M85.1699 2.49999C87.0944 -0.83334 91.9056 -0.833334 93.8301 2.5L177.402 147.25C179.326 150.583 176.92 154.75 173.071 154.75H5.92854C2.07954 154.75 -0.326079 150.583 1.59842 147.25L85.1699 2.49999Z" />
    </symbol>
    <symbol id="triangle-custom" viewBox="0 0 125 91" > 
        <path d="M54.145 4.38845C58.1432 -0.996545 66.2046 -0.996537 70.2028 4.38846L122.025 74.185C126.924 80.7834 122.214 90.1463 113.996 90.1463L10.3519 90.1463C2.13372 90.1463 -2.5761 80.7834 2.32297 74.185L54.145 4.38845Z" />
    </symbol>
    <symbol id="adv-copy" viewBox="0 0 100 100"  > 
        <path d="M61.5234 17.7733H38.0859C36.468 17.7733 35.1562 19.085 35.1562 20.703C35.1562 22.321 36.468 23.6327 38.0859 23.6327H61.5234C63.1414 23.6327 64.4531 22.321 64.4531 20.703C64.4531 19.085 63.1414 17.7733 61.5234 17.7733Z" fill="#212121"/>
        <path d="M61.5234 29.4921H38.0859C36.468 29.4921 35.1562 30.8038 35.1562 32.4218C35.1562 34.0397 36.468 35.3514 38.0859 35.3514H61.5234C63.1414 35.3514 64.4531 34.0397 64.4531 32.4218C64.4531 30.8038 63.1414 29.4921 61.5234 29.4921Z" fill="#212121"/>
        <path d="M61.5234 41.2108H14.6484C13.0305 41.2108 11.7188 42.5225 11.7188 44.1405C11.7188 45.7585 13.0305 47.0702 14.6484 47.0702H61.5234C63.1414 47.0702 64.4531 45.7585 64.4531 44.1405C64.4531 42.5225 63.1414 41.2108 61.5234 41.2108Z" fill="#212121"/>
        <path d="M50.9027 52.9296H14.6484C13.0305 52.9296 11.7188 54.2413 11.7188 55.8593C11.7188 57.4772 13.0305 58.7889 14.6484 58.7889H50.9027C52.5207 58.7889 53.8324 57.4772 53.8324 55.8593C53.8324 54.2413 52.5207 52.9296 50.9027 52.9296Z" fill="#212121"/>
        <path d="M76.3672 52.9296V8.78894C76.3672 3.93113 72.2469 -0.00012207 67.3828 -0.00012207H26.3668C25.624 -0.00012207 24.86 0.293628 24.2871 0.866675L0.849609 24.4995C0.311133 25.0423 0 25.7971 0 26.5624V91.2108C0 96.0571 3.94277 99.9999 8.78906 99.9999C14.9699 99.9999 17.0223 99.9999 17.0135 99.9999C25.9984 99.9999 43.6785 99.9999 76.3672 99.9999C89.3033 99.9999 100 89.3487 100 76.3671C100 63.4436 89.3984 52.9296 76.3672 52.9296ZM23.4375 10.0442V23.6327H9.96133L23.4375 10.0442ZM8.78906 94.1405C7.17363 94.1405 5.85938 92.8262 5.85938 91.2108V29.4921H26.3672C27.9852 29.4921 29.2969 28.1803 29.2969 26.5624V5.85925H67.3828C69.0475 5.85925 70.5078 7.2282 70.5078 8.78894V53.6591C64.2895 55.238 59.0514 59.2694 55.9068 64.6483H14.6484C13.0305 64.6483 11.7188 65.96 11.7188 67.578C11.7188 69.196 13.0305 70.5077 14.6484 70.5077H53.482C52.9941 72.3811 52.7344 74.3446 52.7344 76.3671H14.6484C13.0305 76.3671 11.7188 77.6788 11.7188 79.2968C11.7188 80.9147 13.0305 82.2264 14.6484 82.2264H53.4775C54.6617 86.8079 57.2221 90.9372 60.8764 94.1405H8.78906ZM76.3672 94.1405C66.733 94.1405 58.5938 86.0012 58.5938 76.3671C58.5938 66.6745 66.5668 58.7889 76.3672 58.7889C86.1676 58.7889 94.1406 66.6745 94.1406 76.3671C94.1406 86.0012 86.0014 94.1405 76.3672 94.1405Z" fill="#212121"/>
        <path d="M87.4402 71.3831C86.3058 70.2296 84.4507 70.2141 83.297 71.3487L73.4209 81.0632L69.4201 77.1915C68.2574 76.0663 66.4027 76.0967 65.2775 77.2594C64.1523 78.4221 64.1828 80.2768 65.3455 81.402L71.4002 87.2614C72.5421 88.3667 74.358 88.36 75.492 87.2448L87.406 75.526C88.5595 74.3915 88.5748 72.5366 87.4402 71.3831Z" fill="#212121"/>
    </symbol>
    <symbol id="adv-calendar" viewBox="0 0 100 100"  >  
        <path d="M88.2812 7.81238H83.5938V-0.00012207H75.7812V7.81238H24.2188V-0.00012207H16.4062V7.81238H11.7188C5.25703 7.81238 0 13.0694 0 19.5311V88.2811C0 94.7428 5.25703 99.9999 11.7188 99.9999H88.2812C94.743 99.9999 100 94.7428 100 88.2811V19.5311C100 13.0694 94.743 7.81238 88.2812 7.81238ZM92.1875 88.2811C92.1875 90.435 90.4352 92.1874 88.2812 92.1874H11.7188C9.56484 92.1874 7.8125 90.435 7.8125 88.2811V36.7186H92.1875V88.2811ZM92.1875 28.9061H7.8125V19.5311C7.8125 17.3772 9.56484 15.6249 11.7188 15.6249H16.4062V23.4374H24.2188V15.6249H75.7812V23.4374H83.5938V15.6249H88.2812C90.4352 15.6249 92.1875 17.3772 92.1875 19.5311V28.9061Z" fill="#212121"/>
        <path d="M22.6562 44.9218H14.8438V52.7343H22.6562V44.9218Z" fill="#212121"/>
        <path d="M38.2812 44.9218H30.4688V52.7343H38.2812V44.9218Z" fill="#212121"/>
        <path d="M53.9062 44.9218H46.0938V52.7343H53.9062V44.9218Z" fill="#212121"/>
        <path d="M69.5312 44.9218H61.7188V52.7343H69.5312V44.9218Z" fill="#212121"/>
        <path d="M85.1562 44.9218H77.3438V52.7343H85.1562V44.9218Z" fill="#212121"/>
        <path d="M22.6562 60.5468H14.8438V68.3593H22.6562V60.5468Z" fill="#212121"/>
        <path d="M38.2812 60.5468H30.4688V68.3593H38.2812V60.5468Z" fill="#212121"/>
        <path d="M53.9062 60.5468H46.0938V68.3593H53.9062V60.5468Z" fill="#212121"/>
        <path d="M69.5312 60.5468H61.7188V68.3593H69.5312V60.5468Z" fill="#212121"/>
        <path d="M22.6562 76.1718H14.8438V83.9843H22.6562V76.1718Z" fill="#212121"/>
        <path d="M38.2812 76.1718H30.4688V83.9843H38.2812V76.1718Z" fill="#212121"/>
        <path d="M53.9062 76.1718H46.0938V83.9843H53.9062V76.1718Z" fill="#212121"/>
        <path d="M69.5312 76.1718H61.7188V83.9843H69.5312V76.1718Z" fill="#212121"/>
        <path d="M85.1562 60.5468H77.3438V68.3593H85.1562V60.5468Z" fill="#212121"/>
    </symbol>
    <symbol id="adv-clock" viewBox="0 0 100 100"  >  
        <path d="M65.2323 64.3545L51.2896 53.8975V32.5963C51.2896 30.4545 49.5583 28.7233 47.4165 28.7233C45.2747 28.7233 43.5435 30.4545 43.5435 32.5963V55.8342C43.5435 57.0542 44.1167 58.2045 45.0927 58.9327L60.5845 70.5516C61.2816 71.0745 62.095 71.3262 62.9044 71.3262C64.0857 71.3262 65.2476 70.7956 66.0067 69.7731C67.2929 68.0649 66.9442 65.6366 65.2323 64.3545Z" fill="#212121"/>
        <path d="M50 -0.00012207C22.4283 -0.00012207 0 22.4282 0 49.9999C0 77.5716 22.4283 99.9999 50 99.9999C77.5717 99.9999 100 77.5716 100 49.9999C100 22.4282 77.5717 -0.00012207 50 -0.00012207ZM50 92.254C26.7041 92.254 7.7459 73.2958 7.7459 49.9999C7.7459 26.704 26.7041 7.74578 50 7.74578C73.2998 7.74578 92.2541 26.704 92.2541 49.9999C92.2541 73.2958 73.2959 92.254 50 92.254Z" fill="#212121"/>
    </symbol>
    <symbol id="adv-dollar" viewBox="0 0 100 100"  > 
        <path d="M50 -0.00012207C22.4294 -0.00012207 0 22.4293 0 49.9999C0 77.5684 22.4294 99.9999 50 99.9999C77.5706 99.9999 100 77.5684 100 49.9999C100 22.4293 77.5706 -0.00012207 50 -0.00012207ZM50 91.6665C27.0253 91.6665 8.33333 72.9745 8.33333 49.9999C8.33333 27.0252 27.0253 8.33321 50 8.33321C72.9746 8.33321 91.6667 27.0252 91.6667 49.9999C91.6667 72.9745 72.9746 91.6665 50 91.6665Z" fill="#212121"/>
        <path d="M55.831 24.592C55.2837 24.3539 54.7272 24.1647 54.1667 23.9999V16.6666H45.8334V24.0274C41.8651 25.2267 38.4268 28.0913 36.6568 32.1858C35.1085 35.7604 35.0485 39.7246 36.4818 43.3461C37.9151 46.9685 40.6729 49.8148 44.3401 51.3996L52.4435 54.6813C53.9755 55.3415 55.1586 56.5622 55.773 58.1145C56.3874 59.6669 56.361 61.3667 55.6977 62.8976C55.0355 64.4286 53.8148 65.6127 52.2624 66.2271C50.7081 66.8415 49.0123 66.8161 47.4814 66.1518C45.219 65.1732 43.7541 62.921 43.7521 60.4145L43.7501 56.2479L35.4167 56.256L35.4188 60.4227C35.4229 66.2495 38.8581 71.4995 44.1712 73.8016C44.7165 74.0376 45.2729 74.2288 45.8354 74.3957V83.3332H54.1688V74.3712C54.5584 74.2522 54.948 74.123 55.3315 73.9704C58.9519 72.5371 61.7982 69.7773 63.3454 66.2017C64.8937 62.6271 64.9547 58.6649 63.5214 55.0434C62.0871 51.423 59.3293 48.5768 55.6621 46.9899L47.5587 43.7102C46.0267 43.048 44.8436 41.8273 44.2292 40.275C43.6148 38.7226 43.6423 37.0228 44.3045 35.4918C44.9667 33.9599 46.1874 32.7768 47.7397 32.1624C49.29 31.55 50.9899 31.5744 52.5229 32.2377C54.7517 33.204 56.2501 35.3189 56.2501 37.4999V41.6666H64.5834V37.4999C64.5834 31.9579 61.1481 26.892 55.831 24.592Z" fill="#212121"/>
    </symbol>  
    <symbol id="star" viewBox="0 0 35 32" >
        <path d="M17.5 0L21.429 12.0922L34.1435 12.0922L23.8572 19.5656L27.7862 31.6578L17.5 24.1844L7.21376 31.6578L11.1428 19.5656L0.85651 12.0922L13.571 12.0922L17.5 0Z" />
    </symbol>
</svg>